<?xml version="1.0" encoding="UTF-8" standalone="no"?>
<!-- Created with Inkscape (http://www.inkscape.org/) -->

<svg
   width="214"
   height="240"
   viewBox="0 0 214 240"
   version="1.1"
   id="svg1"
   xml:space="preserve"
   xmlns="http://www.w3.org/2000/svg"
   xmlns:svg="http://www.w3.org/2000/svg"><defs
     id="defs1" /><g
     id="layer1"><path
       id="path1"
       style="display:inline;fill:#000d5f;fill-opacity:1"
       d="m 107.83466,2.7014747 c -22.254136,0.0976 -44.553166,7.3418603 -62.078126,21.3125003 -14.90385,-14.9656503 -33.27332,8.74847 -19.58661,18.37465 -50.22416,37.87778 8.065,67.437015 23.24431,66.924495 l 109.926486,0.24936 c 14.94199,0.0599 80.96258,-27.276015 29.54472,-66.976235 12.96996,-10.9259 -3.95231,-31.89242 -19.23828,-18.31836 C 152.29877,9.6541047 130.0888,2.6038647 107.83466,2.7014747 Z M 80.934274,44.849915 c 8.19601,-3.9e-4 14.84028,6.45587 14.83984,14.41992 4.4e-4,7.96405 -6.64383,14.42031 -14.83984,14.41992 -8.19525,-6.6e-4 -14.83833,-6.45661 -14.83789,-14.41992 -4.4e-4,-7.96331 6.64264,-14.41926 14.83789,-14.41992 z m 52.931636,0.5332 c 8.19525,6.6e-4 14.83833,6.45661 14.83789,14.41992 -6.7e-4,7.96255 -6.64342,14.41731 -14.83789,14.41797 -8.19523,3.9e-4 -14.83918,-6.45468 -14.83985,-14.41797 -4.4e-4,-7.96405 6.64383,-14.42031 14.83985,-14.41992 z" /><path
       style="fill:#000d5f;fill-opacity:1"
       id="path3"
       d="M 35.738533,134.50562 A 16.64473,16.208351 0 0 1 19.48276,150.70954 16.64473,16.208351 0 0 1 2.4672521,135.26293 16.64473,16.208351 0 0 1 17.927785,118.33708 16.64473,16.208351 0 0 1 35.665859,132.99265" /><path
       style="fill:#000d5f;fill-opacity:1"
       id="path3-4"
       d="M 95.108879,220.65863 A 16.64473,16.208351 0 0 1 78.853106,236.86256 16.64473,16.208351 0 0 1 61.837598,221.41594 16.64473,16.208351 0 0 1 77.298131,204.4901 16.64473,16.208351 0 0 1 95.036205,219.14566" /><path
       style="fill:#000d5f;fill-opacity:1"
       id="path3-0"
       d="m 155.2166,220.92474 a 16.64473,16.208351 0 0 1 -16.25577,16.20393 16.64473,16.208351 0 0 1 -17.01551,-15.44662 16.64473,16.208351 0 0 1 15.46053,-16.92584 16.64473,16.208351 0 0 1 17.73807,14.65557" /><path
       style="fill:#000d5f;fill-opacity:1"
       id="path3-5"
       d="m 210.86833,135.03705 a 16.64473,16.208351 0 0 1 -16.25577,16.20392 16.64473,16.208351 0 0 1 -17.01551,-15.44661 16.64473,16.208351 0 0 1 15.46053,-16.92584 16.64473,16.208351 0 0 1 17.73808,14.65556" /><path
       style="fill:#000d5f;fill-opacity:1;stroke-width:1.06171"
       d="M 54.440474,119.14137 H 159.91943 v 45.536 c -0.01,8.4854 -3.92193,12.14574 -10.78478,12.15698 H 64.539524 c -8.26692,-0.0134 -10.28624,-5.02617 -10.31724,-11.62995 z"
       id="path4" /></g></svg>
